<mxfile host="app.diagrams.net" modified="2022-10-21T14:31:43.329Z" agent="5.0 (Windows NT 10.0; Win64; x64) AppleWebKit/537.36 (KHTML, like Gecko) Chrome/106.0.5249.114 Whale/3.17.145.12 Safari/537.36" etag="n83wJTXxg-J57Tqw5klS" version="20.4.2" type="github" pages="2">
  <diagram id="83a54BhIRtI2mwR11kFC" name="페이지-1">
    <mxGraphModel dx="2290" dy="1453" grid="1" gridSize="10" guides="1" tooltips="1" connect="1" arrows="1" fold="1" page="1" pageScale="1" pageWidth="827" pageHeight="1169" math="0" shadow="0">
      <root>
        <mxCell id="0" />
        <mxCell id="1" parent="0" />
      </root>
    </mxGraphModel>
  </diagram>
  <diagram id="QJYkdgNjQJZI4WRHZ3s0" name="페이지-2">
    <mxGraphModel dx="916" dy="581" grid="1" gridSize="10" guides="1" tooltips="1" connect="1" arrows="1" fold="1" page="1" pageScale="1" pageWidth="827" pageHeight="1169" math="0" shadow="0">
      <root>
        <mxCell id="0" />
        <mxCell id="1" parent="0" />
      </root>
    </mxGraphModel>
  </diagram>
</mxfile>
